<svg t="1739772567717" class="icon" viewBox="0 0 1024 1024" version="1.1"
    xmlns="http://www.w3.org/2000/svg" p-id="4177" width="200" height="200">
    <path
        d="M512 0a54.857143 54.857143 0 0 1 54.857143 54.857143v73.142857a54.857143 54.857143 0 0 1-109.714286 0v-73.142857A54.857143 54.857143 0 0 1 512 0z m0 841.142857a54.857143 54.857143 0 0 1 54.857143 54.857143v73.142857a54.857143 54.857143 0 0 1-109.714286 0v-73.142857A54.857143 54.857143 0 0 1 512 841.142857z m384-384a54.857143 54.857143 0 0 0 0 109.714286h73.142857a54.857143 54.857143 0 0 0 0-109.714286h-73.142857zM0 512a54.857143 54.857143 0 0 1 54.857143-54.857143h73.142857a54.857143 54.857143 0 0 1 0 109.714286h-73.142857A54.857143 54.857143 0 0 1 0 512z m227.474286-362.057143a54.857143 54.857143 0 1 0-77.531429 77.531429l62.902857 63.049143A54.857143 54.857143 0 0 0 290.596571 212.845714l-62.976-62.902857z m506.002285 583.533714a54.857143 54.857143 0 0 1 77.604572 0l62.902857 62.902858a54.857143 54.857143 0 0 1-77.531429 77.677714l-62.902857-62.976a54.857143 54.857143 0 0 1 0-77.531429z m140.580572-505.929142a54.857143 54.857143 0 1 0-77.531429-77.531429l-63.049143 62.902857a54.857143 54.857143 0 0 0 77.604572 77.531429l62.902857-62.902857z m-583.533714 505.929142a54.857143 54.857143 0 0 1 0 77.531429l-62.976 63.049143a54.857143 54.857143 0 1 1-77.531429-77.604572l62.902857-62.902857a54.857143 54.857143 0 0 1 77.531429 0z m185.051428 13.458286a237.714286 237.714286 0 0 1 0-469.869714c19.968-3.072 36.425143 13.604571 36.425143 33.792v402.285714c0 20.187429-16.457143 36.864-36.425143 33.792z"
        p-id="4178" fill="#eee"></path>
</svg>